<?xml version="1.0" encoding="UTF-8"?>
<!DOCTYPE svg PUBLIC "-//W3C//DTD SVG 1.1//EN" "http://www.w3.org/Graphics/SVG/1.1/DTD/svg11.dtd">
<svg xmlns="http://www.w3.org/2000/svg" version="1.1" width="99px" height="99px" style="shape-rendering:geometricPrecision; text-rendering:geometricPrecision; image-rendering:optimizeQuality; fill-rule:evenodd; clip-rule:evenodd" xmlns:xlink="http://www.w3.org/1999/xlink">
<g><path style="opacity:0.889" fill="#221e1f" d="M 69.5,2.5 C 74.5881,2.75065 79.5881,3.58399 84.5,5C 86.6667,5.83333 88.1667,7.33333 89,9.5C 90.0305,33.1604 90.8638,56.8271 91.5,80.5C 91.703,84.4114 90.8697,88.0781 89,91.5C 88.0975,92.7014 86.9308,93.5348 85.5,94C 80.4906,94.4099 75.4906,94.9099 70.5,95.5C 64.4353,95.8946 60.602,93.2279 59,87.5C 58.5989,79.4508 57.7656,71.4508 56.5,63.5C 51.6585,61.59 46.6585,61.09 41.5,62C 39.9391,62.3176 38.7724,63.1509 38,64.5C 37.329,72.8777 36.329,81.211 35,89.5C 31.1662,92.7541 26.6662,94.0874 21.5,93.5C 16.3338,94.0874 11.8338,92.7541 8,89.5C 7.69507,77.8234 7.19507,66.1567 6.5,54.5C 7.19968,42.51 7.69968,30.51 8,18.5C 8.14319,14.3808 8.80986,10.3808 10,6.5C 10.7504,5.87424 11.5838,5.37424 12.5,5C 19.6291,4.04951 26.6291,4.54951 33.5,6.5C 35.1107,9.21978 35.944,12.2198 36,15.5C 36.3333,21.1667 36.6667,26.8333 37,32.5C 37.5,33.6667 38.3333,34.5 39.5,35C 44.1667,35.6667 48.8333,35.6667 53.5,35C 55.4771,32.7396 56.4771,30.0729 56.5,27C 54.9175,19.9965 55.4175,13.1631 58,6.5C 58.9025,5.29857 60.0692,4.46524 61.5,4C 64.3647,3.8171 67.0314,3.3171 69.5,2.5 Z M 14.5,6.5 C 20.5933,6.1392 26.5933,6.6392 32.5,8C 33.1258,8.75044 33.6258,9.58377 34,10.5C 34.0605,18.9358 34.7271,27.2691 36,35.5C 36.5,36 37,36.5 37.5,37C 42.7869,38.2625 48.1202,38.5958 53.5,38C 55.286,37.2155 56.786,36.0488 58,34.5C 58.1293,26.1056 58.796,17.7723 60,9.5C 60.8333,8.66667 61.6667,7.83333 62.5,7C 68.2195,6.21244 73.8862,6.37911 79.5,7.5C 80.3078,9.4233 80.8078,11.4233 81,13.5C 81.8272,37.7391 81.6606,61.9058 80.5,86C 74.8958,87.7807 69.2291,87.9473 63.5,86.5C 62.0721,78.2045 60.9054,69.8712 60,61.5C 59.0975,60.2986 57.9308,59.4652 56.5,59C 50.1667,58.3333 43.8333,58.3333 37.5,59C 36.6667,59.8333 35.8333,60.6667 35,61.5C 33.7645,69.7815 32.7645,78.1149 32,86.5C 31.6924,87.3081 31.1924,87.9747 30.5,88.5C 24.3031,89.8173 18.1364,89.8173 12,88.5C 10.8438,76.396 10.0105,64.2294 9.5,52C 10.3078,38.1991 10.8078,24.3658 11,10.5C 11.6897,8.64977 12.8564,7.31643 14.5,6.5 Z M 84.5,20.5 C 86.337,20.6395 86.6704,21.3061 85.5,22.5C 84.7025,22.0431 84.3691,21.3764 84.5,20.5 Z M 85.5,32.5 C 87.4646,32.9483 87.7979,33.9483 86.5,35.5C 85.6143,34.675 85.281,33.675 85.5,32.5 Z M 85.5,38.5 C 86.5862,38.62 87.2528,39.2867 87.5,40.5C 87.1667,41.1667 86.8333,41.8333 86.5,42.5C 85.5713,41.3112 85.238,39.9778 85.5,38.5 Z M 85.5,45.5 C 86.5862,45.62 87.2528,46.2867 87.5,47.5C 87.1667,48.1667 86.8333,48.8333 86.5,49.5C 85.5713,48.3112 85.238,46.9778 85.5,45.5 Z M 85.5,52.5 C 87.337,52.6395 87.6704,53.3061 86.5,54.5C 85.7025,54.0431 85.3691,53.3764 85.5,52.5 Z M 85.5,57.5 C 87.337,57.6395 87.6704,58.3061 86.5,59.5C 85.7025,59.0431 85.3691,58.3764 85.5,57.5 Z M 85.5,63.5 C 87.4646,63.9483 87.7979,64.9483 86.5,66.5C 85.6143,65.675 85.281,64.675 85.5,63.5 Z M 85.5,69.5 C 87.337,69.6395 87.6704,70.3061 86.5,71.5C 85.7025,71.0431 85.3691,70.3764 85.5,69.5 Z M 85.5,79.5 C 87.4646,79.9483 87.7979,80.9483 86.5,82.5C 85.6143,81.675 85.281,80.675 85.5,79.5 Z M 84.5,85.5 C 87.5476,85.494 88.0476,86.494 86,88.5C 84.9614,87.7562 84.4614,86.7562 84.5,85.5 Z M 68.5,91.5 C 69.0768,90.2267 69.7435,90.2267 70.5,91.5C 70.0302,92.463 69.3635,92.463 68.5,91.5 Z M 74.5,90.5 C 77.0009,90.5109 77.1676,91.1776 75,92.5C 74.5357,91.9056 74.369,91.2389 74.5,90.5 Z"/></g>
</svg>
